<svg xmlns="http://www.w3.org/2000/svg" xmlns:xlink="http://www.w3.org/1999/xlink" width="1920" zoomAndPan="magnify" viewBox="0 0 1440 809.999993" height="1080" preserveAspectRatio="xMidYMid meet" version="1.2"><defs><clipPath id="df8ff0d808"><path d="M 759 247 L 981 247 L 981 483.730469 L 759 483.730469 Z M 759 247 "/></clipPath><clipPath id="6bb2a60615"><path d="M 979.152344 449.757812 C 980.445312 448.460938 980.992188 447.167969 980.992188 445.324219 C 980.921875 419.726562 980.957031 394.164062 980.957031 368.5625 L 980.957031 365.734375 L 922.804688 365.734375 L 922.804688 415.773438 C 922.804688 420.988281 922.839844 421.089844 917.964844 422.964844 C 896.800781 431.113281 875.496094 431.007812 854.5 422.660156 C 837.25 415.773438 825.933594 402.992188 820.617188 385.128906 C 817.445312 374.527344 816.933594 363.691406 818.878906 352.816406 C 822.695312 331.683594 834.011719 316.308594 854.054688 307.925781 C 865.441406 303.152344 877.402344 302.097656 889.605469 303.460938 C 903.785156 305.0625 916.875 309.59375 928.023438 318.867188 C 929.863281 320.402344 931.566406 322.171875 933.40625 323.910156 C 947.960938 311.742188 962.378906 299.640625 977.003906 287.40625 C 968.71875 277.28125 959.039062 269.238281 947.929688 262.929688 C 931.019531 253.386719 912.683594 248.75 893.390625 247.523438 C 871.269531 246.160156 849.726562 248.855469 829.171875 257.339844 C 801.871094 268.65625 781.65625 287.507812 769.726562 314.742188 C 759.363281 338.398438 757.148438 363.109375 761.613281 388.367188 C 768.464844 427.019531 789.90625 454.871094 825.695312 470.855469 C 857.703125 485.171875 891.175781 486.5 925.089844 478.867188 C 945.746094 474.230469 964.085938 464.925781 979.152344 449.757812 "/></clipPath><clipPath id="79f644a7bc"><path d="M 991 250 L 1251 250 L 1251 478 L 991 478 Z M 991 250 "/></clipPath><clipPath id="bfbad50308"><path d="M 1247.40625 250.695312 C 1229.683594 250.695312 1211.957031 250.761719 1194.199219 250.625 C 1191.847656 250.59375 1190.859375 251.445312 1189.972656 253.457031 C 1167.40625 304.855469 1144.773438 356.257812 1122.175781 407.625 C 1121.800781 408.445312 1121.425781 409.261719 1120.878906 410.386719 C 1120.265625 409.058594 1119.859375 408.171875 1119.449219 407.25 C 1096.714844 355.816406 1073.945312 304.414062 1051.277344 252.945312 C 1050.492188 251.207031 1049.640625 250.625 1047.765625 250.625 C 1029.699219 250.695312 1011.632812 250.660156 993.570312 250.660156 L 991.046875 250.660156 C 991.457031 251.683594 991.726562 252.46875 992.070312 253.21875 C 1024.757812 327.25 1057.410156 401.285156 1090.066406 475.355469 C 1090.816406 477.058594 1091.632812 477.707031 1093.578125 477.707031 C 1111.746094 477.640625 1129.878906 477.640625 1148.046875 477.707031 C 1149.988281 477.707031 1150.773438 476.992188 1151.523438 475.320312 C 1180.324219 409.976562 1209.164062 344.667969 1238 279.328125 C 1242.15625 269.917969 1246.28125 260.511719 1250.609375 250.660156 Z M 1247.40625 250.695312 "/></clipPath><clipPath id="465b8fabc1"><path d="M 1021.476562 514.554688 L 1060.707031 514.554688 L 1060.707031 559 L 1021.476562 559 Z M 1021.476562 514.554688 "/></clipPath><clipPath id="090d0a5e8b"><path d="M 1051.414062 544.242188 L 1050.96875 543.628906 C 1044.324219 534.253906 1037.675781 524.882812 1031.03125 515.507812 C 1030.6875 515.03125 1030.347656 514.828125 1029.734375 514.828125 C 1027.109375 514.859375 1024.519531 514.828125 1021.859375 514.828125 L 1021.859375 558.660156 L 1030.585938 558.660156 L 1030.585938 529.3125 L 1030.996094 529.894531 C 1037.710938 539.367188 1044.425781 548.808594 1051.105469 558.285156 C 1051.3125 558.59375 1051.550781 558.695312 1051.925781 558.695312 C 1054.445312 558.660156 1056.96875 558.695312 1059.492188 558.695312 L 1060.003906 558.695312 L 1060.003906 514.859375 L 1051.34375 514.859375 Z M 1051.414062 544.242188 "/></clipPath><clipPath id="df4bf3aec1"><path d="M 991.660156 514.859375 L 1000.351562 514.859375 L 1000.351562 533.472656 L 991.660156 533.472656 Z M 964.117188 514.859375 L 972.8125 514.859375 L 972.8125 533.472656 L 964.117188 533.472656 Z M 964.117188 533.472656 L 1000.351562 533.472656 L 1000.351562 540.730469 L 964.117188 540.730469 Z M 964.117188 540.730469 L 972.8125 540.730469 L 972.8125 558.660156 L 964.117188 558.660156 Z M 991.695312 540.730469 L 1000.351562 540.730469 L 1000.351562 558.660156 L 991.695312 558.660156 Z M 991.695312 540.730469 "/></clipPath><clipPath id="60ad7e2da1"><path d="M 852 514.554688 L 886 514.554688 L 886 559 L 852 559 Z M 852 514.554688 "/></clipPath><clipPath id="7f7ddf1133"><path d="M 852.929688 558.695312 L 885.722656 558.695312 L 885.722656 551.46875 L 861.65625 551.46875 L 861.65625 540.699219 L 880.878906 540.699219 L 880.878906 533.472656 L 861.65625 533.472656 L 861.65625 522.054688 L 885.753906 522.054688 L 885.753906 514.894531 L 852.964844 514.894531 Z M 852.929688 558.695312 "/></clipPath><clipPath id="0d87b79e6e"><path d="M 903 514 L 944 514 L 944 560 L 903 560 Z M 903 514 "/></clipPath><clipPath id="af61061ebb"><path d="M 934.363281 549.253906 C 930.988281 551.332031 927.273438 551.808594 923.386719 551.164062 C 918.820312 550.378906 915.375 547.925781 913.433594 543.699219 C 911.558594 539.675781 911.488281 535.515625 912.921875 531.324219 C 914.046875 528.085938 916.160156 525.699219 919.160156 524.097656 C 921.375 522.9375 923.761719 522.429688 926.25 522.460938 C 930.167969 522.460938 933.679688 523.621094 936.578125 526.347656 L 937.121094 527.0625 C 939.40625 525.15625 941.554688 523.347656 943.734375 521.542969 C 942.132812 519.667969 940.292969 518.167969 938.179688 517.042969 C 932.28125 513.90625 926.042969 513.359375 919.636719 514.996094 C 912.886719 516.703125 908.082031 520.792969 905.386719 527.269531 C 903.171875 532.6875 902.933594 538.277344 904.433594 543.867188 C 906.308594 550.890625 910.671875 555.765625 917.523438 558.320312 C 921.410156 559.753906 925.429688 560.09375 929.519531 559.617188 C 933.816406 559.136719 937.703125 557.671875 941.078125 554.945312 C 941.996094 554.195312 942.847656 553.308594 943.769531 552.457031 C 941.519531 550.582031 939.371094 548.777344 937.292969 547.039062 C 936.269531 547.820312 935.351562 548.675781 934.292969 549.320312 "/></clipPath><clipPath id="bc2dd8ba97"><path d="M 1110 514 L 1151 514 L 1151 560 L 1110 560 Z M 1110 514 "/></clipPath><clipPath id="f6e2eebd30"><path d="M 1124.117188 525.460938 C 1129.230469 521.710938 1134.71875 521.574219 1140.378906 524.0625 C 1141.84375 524.710938 1143.105469 525.734375 1144.230469 526.960938 C 1146.410156 525.15625 1148.558594 523.347656 1150.738281 521.507812 C 1149.101562 519.632812 1147.261719 518.132812 1145.148438 517.007812 C 1139.253906 513.871094 1133.046875 513.359375 1126.675781 514.964844 C 1119.925781 516.667969 1115.085938 520.792969 1112.390625 527.269531 C 1110.175781 532.6875 1109.972656 538.277344 1111.472656 543.867188 C 1113.246094 550.445312 1117.234375 555.21875 1123.574219 557.910156 C 1127.695312 559.648438 1132.027344 560.09375 1136.421875 559.617188 C 1140.34375 559.207031 1143.957031 557.945312 1147.160156 555.660156 C 1148.488281 554.742188 1149.648438 553.652344 1150.738281 552.390625 C 1148.558594 550.550781 1146.410156 548.742188 1144.332031 547.039062 C 1143.273438 547.820312 1142.355469 548.675781 1141.296875 549.320312 C 1137.921875 551.402344 1134.207031 551.878906 1130.390625 551.195312 C 1125.855469 550.414062 1122.449219 547.992188 1120.4375 543.800781 C 1118.867188 540.5625 1118.628906 537.152344 1119.277344 533.675781 C 1119.890625 530.371094 1121.390625 527.472656 1124.117188 525.496094 "/></clipPath><clipPath id="de7ca49b52"><path d="M 798 514.554688 L 833 514.554688 L 833 559 L 798 559 Z M 798 514.554688 "/></clipPath><clipPath id="20e8d0f6ed"><path d="M 801.324219 522.5625 L 810.085938 522.5625 L 810.085938 538.585938 L 818.503906 558.660156 L 818.742188 558.660156 L 818.742188 522.53125 L 832.546875 522.53125 L 832.546875 514.859375 L 798.085938 514.859375 Z M 801.324219 522.5625 "/></clipPath><clipPath id="1f5bfe7280"><path d="M 1081.542969 514.859375 L 1090.203125 514.859375 L 1090.203125 558.660156 L 1081.542969 558.660156 Z M 1081.542969 514.859375 "/></clipPath><clipPath id="1a6ee08e6d"><path d="M 766.484375 501 L 802.914062 501 L 802.914062 571.996094 L 766.484375 571.996094 Z M 766.484375 501 "/></clipPath><clipPath id="d93b19d96e"><path d="M 766.691406 501.566406 L 796.144531 571.785156 L 802.039062 571.785156 L 772.589844 501.566406 Z M 766.691406 501.566406 "/></clipPath><clipPath id="76d80fdc0e"><path d="M 216 250 L 760.882812 250 L 760.882812 478 L 216 478 Z M 216 250 "/></clipPath><clipPath id="95884957e4"><path d="M 610 382.335938 C 618.589844 361.816406 627.078125 341.5 635.871094 320.46875 C 644.632812 341.398438 653.152344 361.710938 661.777344 382.335938 Z M 664.605469 250.695312 C 645.6875 250.695312 626.769531 250.730469 607.851562 250.625 C 605.976562 250.625 605.636719 251.683594 605.125 252.910156 C 579.050781 315.492188 552.941406 378.039062 526.863281 440.621094 L 216.101562 477.742188 L 567.527344 477.742188 C 569.574219 477.742188 570.425781 477.058594 571.175781 475.21875 C 577.3125 460.527344 583.617188 445.90625 589.753906 431.179688 C 590.535156 429.304688 591.457031 428.726562 593.46875 428.726562 C 621.757812 428.792969 650.050781 428.792969 678.34375 428.726562 C 680.386719 428.726562 681.273438 429.40625 682.023438 431.214844 C 688.089844 445.9375 694.261719 460.628906 700.363281 475.355469 C 701.078125 477.058594 701.894531 477.742188 703.839844 477.707031 C 721.734375 477.605469 739.628906 477.640625 757.558594 477.640625 L 760.386719 477.640625 C 728.722656 401.730469 697.257812 326.230469 665.765625 250.761719 C 665.253906 250.730469 664.945312 250.660156 664.605469 250.660156 "/></clipPath></defs><g id="b80cae79ca"><g clip-rule="nonzero" clip-path="url(#df8ff0d808)"><g clip-rule="nonzero" clip-path="url(#6bb2a60615)"><path style=" stroke:none;fill-rule:nonzero;fill:#7fb241;fill-opacity:1;" d="M 199.058594 230.140625 L 1268.0625 230.140625 L 1268.0625 588.808594 L 199.058594 588.808594 Z M 199.058594 230.140625 "/></g></g><g clip-rule="nonzero" clip-path="url(#79f644a7bc)"><g clip-rule="nonzero" clip-path="url(#bfbad50308)"><path style=" stroke:none;fill-rule:nonzero;fill:#7fb241;fill-opacity:1;" d="M 199.058594 230.140625 L 1268.0625 230.140625 L 1268.0625 588.808594 L 199.058594 588.808594 Z M 199.058594 230.140625 "/></g></g><g clip-rule="nonzero" clip-path="url(#465b8fabc1)"><g clip-rule="nonzero" clip-path="url(#090d0a5e8b)"><path style=" stroke:none;fill-rule:nonzero;fill:#7fb241;fill-opacity:1;" d="M 199.058594 230.140625 L 1268.0625 230.140625 L 1268.0625 588.808594 L 199.058594 588.808594 Z M 199.058594 230.140625 "/></g></g><g clip-rule="nonzero" clip-path="url(#df4bf3aec1)"><path style=" stroke:none;fill-rule:nonzero;fill:#7fb241;fill-opacity:1;" d="M 199.058594 230.140625 L 1268.0625 230.140625 L 1268.0625 588.808594 L 199.058594 588.808594 Z M 199.058594 230.140625 "/></g><g clip-rule="nonzero" clip-path="url(#60ad7e2da1)"><g clip-rule="nonzero" clip-path="url(#7f7ddf1133)"><path style=" stroke:none;fill-rule:nonzero;fill:#7fb241;fill-opacity:1;" d="M 199.058594 230.140625 L 1268.0625 230.140625 L 1268.0625 588.808594 L 199.058594 588.808594 Z M 199.058594 230.140625 "/></g></g><g clip-rule="nonzero" clip-path="url(#0d87b79e6e)"><g clip-rule="nonzero" clip-path="url(#af61061ebb)"><path style=" stroke:none;fill-rule:nonzero;fill:#7fb241;fill-opacity:1;" d="M 199.058594 230.140625 L 1268.0625 230.140625 L 1268.0625 588.808594 L 199.058594 588.808594 Z M 199.058594 230.140625 "/></g></g><g clip-rule="nonzero" clip-path="url(#bc2dd8ba97)"><g clip-rule="nonzero" clip-path="url(#f6e2eebd30)"><path style=" stroke:none;fill-rule:nonzero;fill:#7fb241;fill-opacity:1;" d="M 199.058594 230.140625 L 1268.0625 230.140625 L 1268.0625 588.808594 L 199.058594 588.808594 Z M 199.058594 230.140625 "/></g></g><g clip-rule="nonzero" clip-path="url(#de7ca49b52)"><g clip-rule="nonzero" clip-path="url(#20e8d0f6ed)"><path style=" stroke:none;fill-rule:nonzero;fill:#7fb241;fill-opacity:1;" d="M 199.058594 230.140625 L 1268.0625 230.140625 L 1268.0625 588.808594 L 199.058594 588.808594 Z M 199.058594 230.140625 "/></g></g><g clip-rule="nonzero" clip-path="url(#1f5bfe7280)"><path style=" stroke:none;fill-rule:nonzero;fill:#7fb241;fill-opacity:1;" d="M 199.058594 230.140625 L 1268.0625 230.140625 L 1268.0625 588.808594 L 199.058594 588.808594 Z M 199.058594 230.140625 "/></g><g clip-rule="nonzero" clip-path="url(#1a6ee08e6d)"><g clip-rule="nonzero" clip-path="url(#d93b19d96e)"><path style=" stroke:none;fill-rule:nonzero;fill:#7fb241;fill-opacity:1;" d="M 199.058594 230.140625 L 1268.0625 230.140625 L 1268.0625 588.808594 L 199.058594 588.808594 Z M 199.058594 230.140625 "/></g></g><g clip-rule="nonzero" clip-path="url(#76d80fdc0e)"><g clip-rule="nonzero" clip-path="url(#95884957e4)"><path style=" stroke:none;fill-rule:nonzero;fill:#7fb241;fill-opacity:1;" d="M 199.058594 230.140625 L 1268.0625 230.140625 L 1268.0625 588.808594 L 199.058594 588.808594 Z M 199.058594 230.140625 "/></g></g></g></svg>