<svg xmlns="http://www.w3.org/2000/svg" xmlns:xlink="http://www.w3.org/1999/xlink" width="1920" zoomAndPan="magnify" viewBox="0 0 1440 809.999993" height="1080" preserveAspectRatio="xMidYMid meet" version="1.2"><defs><clipPath id="3a30ec8354"><path d="M 755 186 L 1054 186 L 1054 505 L 755 505 Z M 755 186 "/></clipPath><clipPath id="d1b3904003"><path d="M 1051.269531 459.285156 C 1053.015625 457.539062 1053.75 455.792969 1053.75 453.3125 C 1053.65625 418.816406 1053.703125 384.363281 1053.703125 349.867188 L 1053.703125 346.054688 L 975.335938 346.054688 L 975.335938 413.488281 C 975.335938 420.515625 975.382812 420.652344 968.816406 423.179688 C 940.289062 434.15625 911.578125 434.019531 883.285156 422.765625 C 860.039062 413.488281 844.789062 396.261719 837.625 372.191406 C 833.351562 357.90625 832.664062 343.296875 835.28125 328.644531 C 840.425781 300.164062 855.675781 279.449219 882.6875 268.148438 C 898.027344 261.71875 914.152344 260.292969 930.597656 262.128906 C 949.707031 264.289062 967.34375 270.398438 982.367188 282.894531 C 984.847656 284.960938 987.144531 287.347656 989.625 289.691406 C 1009.238281 273.292969 1028.667969 256.984375 1048.375 240.496094 C 1037.210938 226.851562 1024.167969 216.011719 1009.191406 207.515625 C 986.40625 194.652344 961.695312 188.40625 935.695312 186.75 C 905.882812 184.914062 876.851562 188.542969 849.15625 199.980469 C 812.359375 215.230469 785.121094 240.632812 769.042969 277.335938 C 755.078125 309.214844 752.09375 342.515625 758.109375 376.554688 C 767.34375 428.644531 796.238281 466.175781 844.46875 487.71875 C 887.601562 507.011719 932.710938 508.800781 978.414062 498.511719 C 1006.253906 492.265625 1030.964844 479.726562 1051.269531 459.285156 "/></clipPath><clipPath id="03b2b5c150"><path d="M 1067 190 L 1417.957031 190 L 1417.957031 497 L 1067 497 Z M 1067 190 "/></clipPath><clipPath id="9e52bbe1f7"><path d="M 1412.777344 191.023438 C 1388.890625 191.023438 1365.003906 191.113281 1341.070312 190.929688 C 1337.902344 190.886719 1336.570312 192.035156 1335.375 194.742188 C 1304.96875 264.015625 1274.464844 333.285156 1244.011719 402.507812 C 1243.507812 403.609375 1243 404.710938 1242.265625 406.230469 C 1241.4375 404.4375 1240.886719 403.242188 1240.335938 402.003906 C 1209.699219 332.6875 1179.011719 263.417969 1148.464844 194.054688 C 1147.410156 191.710938 1146.261719 190.929688 1143.734375 190.929688 C 1119.390625 191.023438 1095.042969 190.976562 1070.699219 190.976562 L 1067.300781 190.976562 C 1067.851562 192.355469 1068.21875 193.410156 1068.675781 194.421875 C 1112.730469 294.191406 1156.734375 393.964844 1200.742188 493.78125 C 1201.75 496.078125 1202.855469 496.949219 1205.472656 496.949219 C 1229.957031 496.859375 1254.394531 496.859375 1278.875 496.949219 C 1281.496094 496.949219 1282.550781 495.984375 1283.5625 493.734375 C 1322.375 405.675781 1361.238281 317.667969 1400.097656 229.609375 C 1405.703125 216.929688 1411.261719 204.253906 1417.09375 190.976562 Z M 1412.777344 191.023438 "/></clipPath><clipPath id="7243578b0d"><path d="M 1108.308594 546.605469 L 1161 546.605469 L 1161 607 L 1108.308594 607 Z M 1108.308594 546.605469 "/></clipPath><clipPath id="9f09ac2ba7"><path d="M 1148.648438 586.617188 L 1148.054688 585.789062 C 1139.097656 573.15625 1130.136719 560.523438 1121.179688 547.890625 C 1120.722656 547.25 1120.261719 546.972656 1119.4375 546.972656 C 1115.898438 547.019531 1112.40625 546.972656 1108.824219 546.972656 L 1108.824219 606.046875 L 1120.585938 606.046875 L 1120.585938 566.496094 L 1121.136719 567.277344 C 1130.183594 580.046875 1139.234375 592.769531 1148.238281 605.539062 C 1148.511719 605.953125 1148.835938 606.09375 1149.339844 606.09375 C 1152.738281 606.046875 1156.136719 606.09375 1159.535156 606.09375 L 1160.226562 606.09375 L 1160.226562 547.019531 L 1148.558594 547.019531 Z M 1148.648438 586.617188 "/></clipPath><clipPath id="ae8acc4d4c"><path d="M 1068.125 547.019531 L 1079.839844 547.019531 L 1079.839844 572.101562 L 1068.125 572.101562 Z M 1031.011719 547.019531 L 1042.722656 547.019531 L 1042.722656 572.101562 L 1031.011719 572.101562 Z M 1031.011719 572.101562 L 1079.839844 572.101562 L 1079.839844 581.882812 L 1031.011719 581.882812 Z M 1031.011719 581.882812 L 1042.722656 581.882812 L 1042.722656 606.046875 L 1031.011719 606.046875 Z M 1068.171875 581.882812 L 1079.839844 581.882812 L 1079.839844 606.046875 L 1068.171875 606.046875 Z M 1068.171875 581.882812 "/></clipPath><clipPath id="7e4529a336"><path d="M 881 547 L 926 547 L 926 607 L 881 607 Z M 881 547 "/></clipPath><clipPath id="5dabf198a3"><path d="M 881.171875 606.09375 L 925.359375 606.09375 L 925.359375 596.355469 L 892.929688 596.355469 L 892.929688 581.839844 L 918.835938 581.839844 L 918.835938 572.101562 L 892.929688 572.101562 L 892.929688 556.710938 L 925.40625 556.710938 L 925.40625 547.066406 L 881.21875 547.066406 Z M 881.171875 606.09375 "/></clipPath><clipPath id="6e044666f1"><path d="M 949 545 L 1004 545 L 1004 608 L 949 608 Z M 949 545 "/></clipPath><clipPath id="02759ef9d1"><path d="M 990.910156 593.367188 C 986.363281 596.171875 981.355469 596.8125 976.117188 595.941406 C 969.964844 594.882812 965.324219 591.578125 962.707031 585.878906 C 960.179688 580.460938 960.085938 574.855469 962.015625 569.207031 C 963.53125 564.84375 966.378906 561.625 970.421875 559.46875 C 973.410156 557.90625 976.625 557.21875 979.976562 557.261719 C 985.257812 557.261719 989.992188 558.824219 993.894531 562.5 L 994.628906 563.464844 C 997.707031 560.890625 1000.601562 558.457031 1003.542969 556.023438 C 1001.382812 553.496094 998.902344 551.476562 996.054688 549.960938 C 988.109375 545.734375 979.703125 545 971.066406 547.203125 C 961.96875 549.5 955.492188 555.011719 951.863281 563.738281 C 948.878906 571.042969 948.558594 578.578125 950.578125 586.109375 C 953.105469 595.574219 958.984375 602.140625 968.21875 605.585938 C 973.453125 607.515625 978.875 607.976562 984.386719 607.332031 C 990.175781 606.6875 995.410156 604.714844 999.957031 601.039062 C 1001.199219 600.027344 1002.347656 598.835938 1003.585938 597.6875 C 1000.554688 595.160156 997.664062 592.726562 994.859375 590.382812 C 993.480469 591.4375 992.242188 592.585938 990.816406 593.460938 "/></clipPath><clipPath id="4fa4032020"><path d="M 1228 545 L 1283 545 L 1283 608 L 1228 608 Z M 1228 545 "/></clipPath><clipPath id="e356f40f9b"><path d="M 1246.628906 561.304688 C 1253.519531 556.253906 1260.914062 556.070312 1268.539062 559.421875 C 1270.515625 560.292969 1272.214844 561.671875 1273.730469 563.328125 C 1276.671875 560.890625 1279.566406 558.457031 1282.503906 555.976562 C 1280.300781 553.449219 1277.820312 551.429688 1274.972656 549.914062 C 1267.023438 545.6875 1258.664062 545 1250.074219 547.15625 C 1240.980469 549.453125 1234.457031 555.011719 1230.828125 563.738281 C 1227.84375 571.042969 1227.566406 578.578125 1229.589844 586.109375 C 1231.976562 594.976562 1237.351562 601.40625 1245.894531 605.035156 C 1251.453125 607.378906 1257.285156 607.976562 1263.210938 607.332031 C 1268.496094 606.78125 1273.363281 605.082031 1277.683594 602.003906 C 1279.472656 600.761719 1281.035156 599.292969 1282.503906 597.59375 C 1279.566406 595.113281 1276.671875 592.679688 1273.871094 590.382812 C 1272.445312 591.4375 1271.203125 592.585938 1269.78125 593.460938 C 1265.234375 596.261719 1260.226562 596.90625 1255.082031 595.984375 C 1248.972656 594.929688 1244.378906 591.667969 1241.667969 586.019531 C 1239.554688 581.65625 1239.234375 577.0625 1240.105469 572.375 C 1240.933594 567.917969 1242.953125 564.015625 1246.628906 561.351562 "/></clipPath><clipPath id="e1e98bc42a"><path d="M 807 547 L 854 547 L 854 607 L 807 607 Z M 807 547 "/></clipPath><clipPath id="58ce5996b8"><path d="M 811.625 557.402344 L 823.429688 557.402344 L 823.429688 578.992188 L 834.777344 606.046875 L 835.097656 606.046875 L 835.097656 557.355469 L 853.703125 557.355469 L 853.703125 547.019531 L 807.261719 547.019531 Z M 811.625 557.402344 "/></clipPath><clipPath id="2390e72332"><path d="M 1189.257812 547.019531 L 1200.925781 547.019531 L 1200.925781 606.046875 L 1189.257812 606.046875 Z M 1189.257812 547.019531 "/></clipPath><clipPath id="cebd5f4ef6"><path d="M 764.675781 529 L 813 529 L 813 624 L 764.675781 624 Z M 764.675781 529 "/></clipPath><clipPath id="3ed7997045"><path d="M 764.957031 529.105469 L 804.644531 623.730469 L 812.589844 623.730469 L 772.902344 529.105469 Z M 764.957031 529.105469 "/></clipPath><clipPath id="cbab7fdb26"><path d="M 22.65625 190 L 757 190 L 757 497 L 22.65625 497 Z M 22.65625 190 "/></clipPath><clipPath id="74f4d707e5"><path d="M 553.792969 368.425781 C 565.367188 340.769531 576.804688 313.394531 588.65625 285.050781 C 600.460938 313.257812 611.945312 340.632812 623.566406 368.425781 Z M 627.378906 191.023438 C 601.886719 191.023438 576.390625 191.070312 550.898438 190.929688 C 548.371094 190.929688 547.914062 192.355469 547.222656 194.007812 C 512.082031 278.347656 476.898438 362.636719 441.757812 446.972656 L 22.96875 496.996094 L 496.558594 496.996094 C 499.3125 496.996094 500.460938 496.078125 501.472656 493.597656 C 509.742188 473.800781 518.238281 454.09375 526.507812 434.25 C 527.5625 431.722656 528.804688 430.941406 531.515625 430.941406 C 569.640625 431.035156 607.765625 431.035156 645.890625 430.941406 C 648.648438 430.941406 649.84375 431.859375 650.851562 434.296875 C 659.03125 454.140625 667.34375 473.9375 675.566406 493.78125 C 676.53125 496.078125 677.632812 496.996094 680.25 496.949219 C 704.367188 496.8125 728.484375 496.859375 752.644531 496.859375 L 756.457031 496.859375 C 713.785156 394.5625 671.386719 292.816406 628.941406 191.113281 C 628.253906 191.070312 627.839844 190.976562 627.378906 190.976562 "/></clipPath></defs><g id="635a04ea10"><rect x="0" width="1440" y="0" height="809.999993" style="fill:#ffffff;fill-opacity:1;stroke:none;"/><g clip-rule="nonzero" clip-path="url(#3a30ec8354)"><g clip-rule="nonzero" clip-path="url(#d1b3904003)"><path style=" stroke:none;fill-rule:nonzero;fill:#7fb241;fill-opacity:1;" d="M 0 163.324219 L 1440.613281 163.324219 L 1440.613281 646.675781 L 0 646.675781 Z M 0 163.324219 "/></g></g><g clip-rule="nonzero" clip-path="url(#03b2b5c150)"><g clip-rule="nonzero" clip-path="url(#9e52bbe1f7)"><path style=" stroke:none;fill-rule:nonzero;fill:#7fb241;fill-opacity:1;" d="M 0 163.324219 L 1440.613281 163.324219 L 1440.613281 646.675781 L 0 646.675781 Z M 0 163.324219 "/></g></g><g clip-rule="nonzero" clip-path="url(#7243578b0d)"><g clip-rule="nonzero" clip-path="url(#9f09ac2ba7)"><path style=" stroke:none;fill-rule:nonzero;fill:#7fb241;fill-opacity:1;" d="M 0 163.324219 L 1440.613281 163.324219 L 1440.613281 646.675781 L 0 646.675781 Z M 0 163.324219 "/></g></g><g clip-rule="nonzero" clip-path="url(#ae8acc4d4c)"><path style=" stroke:none;fill-rule:nonzero;fill:#7fb241;fill-opacity:1;" d="M 0 163.324219 L 1440.613281 163.324219 L 1440.613281 646.675781 L 0 646.675781 Z M 0 163.324219 "/></g><g clip-rule="nonzero" clip-path="url(#7e4529a336)"><g clip-rule="nonzero" clip-path="url(#5dabf198a3)"><path style=" stroke:none;fill-rule:nonzero;fill:#7fb241;fill-opacity:1;" d="M 0 163.324219 L 1440.613281 163.324219 L 1440.613281 646.675781 L 0 646.675781 Z M 0 163.324219 "/></g></g><g clip-rule="nonzero" clip-path="url(#6e044666f1)"><g clip-rule="nonzero" clip-path="url(#02759ef9d1)"><path style=" stroke:none;fill-rule:nonzero;fill:#7fb241;fill-opacity:1;" d="M 0 163.324219 L 1440.613281 163.324219 L 1440.613281 646.675781 L 0 646.675781 Z M 0 163.324219 "/></g></g><g clip-rule="nonzero" clip-path="url(#4fa4032020)"><g clip-rule="nonzero" clip-path="url(#e356f40f9b)"><path style=" stroke:none;fill-rule:nonzero;fill:#7fb241;fill-opacity:1;" d="M 0 163.324219 L 1440.613281 163.324219 L 1440.613281 646.675781 L 0 646.675781 Z M 0 163.324219 "/></g></g><g clip-rule="nonzero" clip-path="url(#e1e98bc42a)"><g clip-rule="nonzero" clip-path="url(#58ce5996b8)"><path style=" stroke:none;fill-rule:nonzero;fill:#7fb241;fill-opacity:1;" d="M 0 163.324219 L 1440.613281 163.324219 L 1440.613281 646.675781 L 0 646.675781 Z M 0 163.324219 "/></g></g><g clip-rule="nonzero" clip-path="url(#2390e72332)"><path style=" stroke:none;fill-rule:nonzero;fill:#7fb241;fill-opacity:1;" d="M 0 163.324219 L 1440.613281 163.324219 L 1440.613281 646.675781 L 0 646.675781 Z M 0 163.324219 "/></g><g clip-rule="nonzero" clip-path="url(#cebd5f4ef6)"><g clip-rule="nonzero" clip-path="url(#3ed7997045)"><path style=" stroke:none;fill-rule:nonzero;fill:#7fb241;fill-opacity:1;" d="M 0 163.324219 L 1440.613281 163.324219 L 1440.613281 646.675781 L 0 646.675781 Z M 0 163.324219 "/></g></g><g clip-rule="nonzero" clip-path="url(#cbab7fdb26)"><g clip-rule="nonzero" clip-path="url(#74f4d707e5)"><path style=" stroke:none;fill-rule:nonzero;fill:#7fb241;fill-opacity:1;" d="M 0 163.324219 L 1440.613281 163.324219 L 1440.613281 646.675781 L 0 646.675781 Z M 0 163.324219 "/></g></g></g></svg>